<?xml version="1.0" encoding="UTF-8"?><svg id="b" xmlns="http://www.w3.org/2000/svg" viewBox="0 0 400.59 46.46"><defs><style>.d{fill:#fffef2;}</style></defs><g id="c"><path class="d" d="m59.11,33.8c0,5.16-3.02,8.44-8.44,8.44h-12.66v4.22h-16.87v-4.22H0v-12.66h38.02v-4.22H8.44c-5.31,0-8.44-3.33-8.44-8.44v-4.27C0,7.5,2.81,4.22,8.44,4.22h12.71V0h16.87v4.22h21.09v12.71H21.15v4.22h29.53c5.94,0,8.44,2.14,8.44,8.44v4.22Z"/><path class="d" d="m122.6,4.22l-18.07,38.02h-22.19L63.48,4.22h22.6l7.08,17.97,8.12-17.97h21.3Z"/><path class="d" d="m183.79,21.15c0,5.63-2.81,8.44-8.44,8.44l8.44,12.66h-22.55l-6.93-12.66h-8.54v12.66h-21.09V12.66c0-4.58,3.75-8.44,8.44-8.44h42.24c5.63,0,8.44,2.81,8.44,8.44v8.49Zm-21.09,4.22v-4.22h-16.93v4.22h16.93Z"/><path class="d" d="m247.95,33.8c0,5.63-2.81,8.44-8.44,8.44h-42.24c-5.63,0-8.44-2.81-8.44-8.44V12.66c0-4.9,3.28-8.44,8.44-8.44h42.24c5.21,0,8.44,3.49,8.44,8.44v21.15Zm-21.09-8.44v-4.22h-16.93v4.22h16.93Z"/><path class="d" d="m313.77,33.8c0,5.63-2.81,8.44-8.44,8.44h-42.24c-5.62,0-8.44-2.81-8.44-8.44V12.66c0-4.9,3.28-8.44,8.44-8.44h42.24c5.21,0,8.44,3.49,8.44,8.44v21.15Zm-21.09-8.44v-4.22h-16.93v4.22h16.93Z"/><path class="d" d="m400.59,42.24h-21.09v-21.09h-8.44v21.09h-21.15v-21.09h-8.44v21.09h-21.09V12.66c0-5.16,3.07-8.44,8.44-8.44h63.33c5.62,0,8.44,2.81,8.44,8.44v29.58Z"/></g></svg>