<?xml version="1.0" encoding="utf-8"?>
<!-- Generator: Adobe Illustrator 27.7.0, SVG Export Plug-In . SVG Version: 6.00 Build 0)  -->
<svg version="1.1" id="b" xmlns="http://www.w3.org/2000/svg" xmlns:xlink="http://www.w3.org/1999/xlink" x="0px" y="0px"
	 viewBox="0 0 400.6 46.5" style="enable-background:new 0 0 400.6 46.5;" xml:space="preserve">
<style type="text/css">
	.st0{fill:#111111;}
</style>
<g id="c">
	<path class="st0" d="M59.1,33.8c0,5.2-3,8.4-8.4,8.4H38v4.2H21.1v-4.2H0V29.6h38v-4.2H8.4C3.1,25.4,0,22,0,16.9v-4.3
		c0-5.1,2.8-8.4,8.4-8.4h12.7V0H38v4.2h21.1v12.7h-38v4.2h29.5c5.9,0,8.4,2.1,8.4,8.4L59.1,33.8L59.1,33.8z"/>
	<path class="st0" d="M122.6,4.2l-18.1,38H82.3l-18.9-38h22.6l7.1,18l8.1-18L122.6,4.2L122.6,4.2z"/>
	<path class="st0" d="M183.8,21.1c0,5.6-2.8,8.4-8.4,8.4l8.4,12.7h-22.6l-6.9-12.7h-8.5v12.7h-21.1V12.7c0-4.6,3.8-8.4,8.4-8.4h42.2
		c5.6,0,8.4,2.8,8.4,8.4L183.8,21.1L183.8,21.1z M162.7,25.4v-4.2h-16.9v4.2H162.7L162.7,25.4z"/>
	<path class="st0" d="M247.9,33.8c0,5.6-2.8,8.4-8.4,8.4h-42.2c-5.6,0-8.4-2.8-8.4-8.4V12.7c0-4.9,3.3-8.4,8.4-8.4h42.2
		c5.2,0,8.4,3.5,8.4,8.4V33.8L247.9,33.8z M226.9,25.4v-4.2h-16.9v4.2H226.9L226.9,25.4z"/>
	<path class="st0" d="M313.8,33.8c0,5.6-2.8,8.4-8.4,8.4h-42.2c-5.6,0-8.4-2.8-8.4-8.4V12.7c0-4.9,3.3-8.4,8.4-8.4h42.2
		c5.2,0,8.4,3.5,8.4,8.4V33.8L313.8,33.8z M292.7,25.4v-4.2h-16.9v4.2H292.7z"/>
	<path class="st0" d="M400.6,42.2h-21.1V21.2h-8.4v21.1h-21.1V21.2h-8.4v21.1h-21.1V12.7c0-5.2,3.1-8.4,8.4-8.4h63.3
		c5.6,0,8.4,2.8,8.4,8.4L400.6,42.2L400.6,42.2z"/>
</g>
</svg>
